<mxfile host="app.diagrams.net" modified="2024-04-30T13:51:04.683Z" agent="Mozilla/5.0 (Windows NT 10.0; Win64; x64) AppleWebKit/537.36 (KHTML, like Gecko) Chrome/124.0.0.0 Safari/537.36" etag="LFeJCEDokClegU0jO-D5" version="23.1.5" type="github">
  <diagram id="C5RBs43oDa-KdzZeNtuy" name="Page-1">
    <mxGraphModel dx="1134" dy="600" grid="1" gridSize="10" guides="1" tooltips="1" connect="1" arrows="1" fold="1" page="1" pageScale="1" pageWidth="827" pageHeight="1169" math="0" shadow="0">
      <root>
        <mxCell id="WIyWlLk6GJQsqaUBKTNV-0" />
        <mxCell id="WIyWlLk6GJQsqaUBKTNV-1" parent="WIyWlLk6GJQsqaUBKTNV-0" />
        <mxCell id="WIyWlLk6GJQsqaUBKTNV-3" value="login" style="rounded=1;whiteSpace=wrap;html=1;fontSize=12;glass=0;strokeWidth=1;shadow=0;" parent="WIyWlLk6GJQsqaUBKTNV-1" vertex="1">
          <mxGeometry x="395" y="60" width="70" height="30" as="geometry" />
        </mxCell>
        <mxCell id="bbwI9RvaQe0_618O25Zi-4" style="edgeStyle=orthogonalEdgeStyle;rounded=0;orthogonalLoop=1;jettySize=auto;html=1;exitX=0.5;exitY=1;exitDx=0;exitDy=0;entryX=0.5;entryY=0;entryDx=0;entryDy=0;" edge="1" parent="WIyWlLk6GJQsqaUBKTNV-1" source="bbwI9RvaQe0_618O25Zi-2" target="WIyWlLk6GJQsqaUBKTNV-3">
          <mxGeometry relative="1" as="geometry" />
        </mxCell>
        <mxCell id="bbwI9RvaQe0_618O25Zi-2" value="" style="ellipse;whiteSpace=wrap;html=1;aspect=fixed;" vertex="1" parent="WIyWlLk6GJQsqaUBKTNV-1">
          <mxGeometry x="420" y="20" width="20" height="20" as="geometry" />
        </mxCell>
        <mxCell id="bbwI9RvaQe0_618O25Zi-24" style="edgeStyle=orthogonalEdgeStyle;rounded=0;orthogonalLoop=1;jettySize=auto;html=1;entryX=0.411;entryY=-0.035;entryDx=0;entryDy=0;entryPerimeter=0;" edge="1" parent="WIyWlLk6GJQsqaUBKTNV-1" source="bbwI9RvaQe0_618O25Zi-9" target="bbwI9RvaQe0_618O25Zi-23">
          <mxGeometry relative="1" as="geometry" />
        </mxCell>
        <mxCell id="bbwI9RvaQe0_618O25Zi-9" value="HR Manager" style="rounded=1;whiteSpace=wrap;html=1;" vertex="1" parent="WIyWlLk6GJQsqaUBKTNV-1">
          <mxGeometry x="30" y="150" width="80" height="30" as="geometry" />
        </mxCell>
        <mxCell id="bbwI9RvaQe0_618O25Zi-10" value="User" style="rounded=1;whiteSpace=wrap;html=1;" vertex="1" parent="WIyWlLk6GJQsqaUBKTNV-1">
          <mxGeometry x="710" y="150" width="80" height="30" as="geometry" />
        </mxCell>
        <mxCell id="bbwI9RvaQe0_618O25Zi-48" style="edgeStyle=orthogonalEdgeStyle;rounded=0;orthogonalLoop=1;jettySize=auto;html=1;exitX=0.5;exitY=1;exitDx=0;exitDy=0;" edge="1" parent="WIyWlLk6GJQsqaUBKTNV-1" source="bbwI9RvaQe0_618O25Zi-11">
          <mxGeometry relative="1" as="geometry">
            <mxPoint x="540.1176470588236" y="210" as="targetPoint" />
          </mxGeometry>
        </mxCell>
        <mxCell id="bbwI9RvaQe0_618O25Zi-11" value="Recruiter" style="rounded=1;whiteSpace=wrap;html=1;" vertex="1" parent="WIyWlLk6GJQsqaUBKTNV-1">
          <mxGeometry x="500" y="150" width="80" height="30" as="geometry" />
        </mxCell>
        <mxCell id="bbwI9RvaQe0_618O25Zi-12" value="SuperAdmin" style="rounded=1;whiteSpace=wrap;html=1;" vertex="1" parent="WIyWlLk6GJQsqaUBKTNV-1">
          <mxGeometry x="200" y="150" width="80" height="30" as="geometry" />
        </mxCell>
        <mxCell id="bbwI9RvaQe0_618O25Zi-17" value="" style="edgeStyle=orthogonalEdgeStyle;rounded=0;orthogonalLoop=1;jettySize=auto;html=1;exitX=0.5;exitY=1;exitDx=0;exitDy=0;" edge="1" parent="WIyWlLk6GJQsqaUBKTNV-1" source="WIyWlLk6GJQsqaUBKTNV-3" target="bbwI9RvaQe0_618O25Zi-16">
          <mxGeometry relative="1" as="geometry">
            <mxPoint x="429.52941176470586" y="120" as="targetPoint" />
            <mxPoint x="430" y="90" as="sourcePoint" />
          </mxGeometry>
        </mxCell>
        <mxCell id="bbwI9RvaQe0_618O25Zi-19" style="edgeStyle=orthogonalEdgeStyle;rounded=0;orthogonalLoop=1;jettySize=auto;html=1;exitX=0;exitY=0.5;exitDx=0;exitDy=0;entryX=0.401;entryY=-0.212;entryDx=0;entryDy=0;entryPerimeter=0;" edge="1" parent="WIyWlLk6GJQsqaUBKTNV-1" source="bbwI9RvaQe0_618O25Zi-16" target="bbwI9RvaQe0_618O25Zi-9">
          <mxGeometry relative="1" as="geometry">
            <mxPoint x="60" y="120.11764705882354" as="targetPoint" />
            <Array as="points">
              <mxPoint x="62" y="120" />
            </Array>
          </mxGeometry>
        </mxCell>
        <mxCell id="bbwI9RvaQe0_618O25Zi-20" style="edgeStyle=orthogonalEdgeStyle;rounded=0;orthogonalLoop=1;jettySize=auto;html=1;entryX=0.646;entryY=-0.107;entryDx=0;entryDy=0;entryPerimeter=0;" edge="1" parent="WIyWlLk6GJQsqaUBKTNV-1" source="bbwI9RvaQe0_618O25Zi-16" target="bbwI9RvaQe0_618O25Zi-10">
          <mxGeometry relative="1" as="geometry">
            <mxPoint x="760" y="120" as="targetPoint" />
          </mxGeometry>
        </mxCell>
        <mxCell id="bbwI9RvaQe0_618O25Zi-16" value="" style="rhombus;whiteSpace=wrap;html=1;" vertex="1" parent="WIyWlLk6GJQsqaUBKTNV-1">
          <mxGeometry x="420" y="110" width="20" height="20" as="geometry" />
        </mxCell>
        <mxCell id="bbwI9RvaQe0_618O25Zi-26" style="edgeStyle=orthogonalEdgeStyle;rounded=0;orthogonalLoop=1;jettySize=auto;html=1;" edge="1" parent="WIyWlLk6GJQsqaUBKTNV-1" source="bbwI9RvaQe0_618O25Zi-23">
          <mxGeometry relative="1" as="geometry">
            <mxPoint x="220" y="235" as="targetPoint" />
          </mxGeometry>
        </mxCell>
        <mxCell id="bbwI9RvaQe0_618O25Zi-23" value="Create Recruiter" style="rounded=1;whiteSpace=wrap;html=1;" vertex="1" parent="WIyWlLk6GJQsqaUBKTNV-1">
          <mxGeometry x="20" y="220" width="110" height="30" as="geometry" />
        </mxCell>
        <mxCell id="bbwI9RvaQe0_618O25Zi-29" style="edgeStyle=orthogonalEdgeStyle;rounded=0;orthogonalLoop=1;jettySize=auto;html=1;" edge="1" parent="WIyWlLk6GJQsqaUBKTNV-1" source="bbwI9RvaQe0_618O25Zi-25" target="bbwI9RvaQe0_618O25Zi-30">
          <mxGeometry relative="1" as="geometry">
            <mxPoint x="499.9999999999998" y="235" as="targetPoint" />
          </mxGeometry>
        </mxCell>
        <mxCell id="bbwI9RvaQe0_618O25Zi-25" value="" style="rhombus;whiteSpace=wrap;html=1;" vertex="1" parent="WIyWlLk6GJQsqaUBKTNV-1">
          <mxGeometry x="225" y="225" width="25" height="20" as="geometry" />
        </mxCell>
        <mxCell id="bbwI9RvaQe0_618O25Zi-28" value="verify" style="text;html=1;align=center;verticalAlign=middle;resizable=0;points=[];autosize=1;strokeColor=none;fillColor=none;" vertex="1" parent="WIyWlLk6GJQsqaUBKTNV-1">
          <mxGeometry x="145" y="210" width="50" height="30" as="geometry" />
        </mxCell>
        <mxCell id="bbwI9RvaQe0_618O25Zi-30" value="Upload Candidate&#39;s&amp;nbsp;&lt;br&gt;document" style="rounded=1;whiteSpace=wrap;html=1;" vertex="1" parent="WIyWlLk6GJQsqaUBKTNV-1">
          <mxGeometry x="487.5" y="211.88" width="105" height="46.25" as="geometry" />
        </mxCell>
        <mxCell id="bbwI9RvaQe0_618O25Zi-34" value="" style="endArrow=none;html=1;rounded=0;" edge="1" parent="WIyWlLk6GJQsqaUBKTNV-1">
          <mxGeometry width="50" height="50" relative="1" as="geometry">
            <mxPoint x="540" y="290" as="sourcePoint" />
            <mxPoint x="540" y="258.13" as="targetPoint" />
          </mxGeometry>
        </mxCell>
        <mxCell id="bbwI9RvaQe0_618O25Zi-35" value="" style="endArrow=none;html=1;rounded=0;" edge="1" parent="WIyWlLk6GJQsqaUBKTNV-1">
          <mxGeometry width="50" height="50" relative="1" as="geometry">
            <mxPoint x="80" y="290" as="sourcePoint" />
            <mxPoint x="540" y="290" as="targetPoint" />
          </mxGeometry>
        </mxCell>
        <mxCell id="bbwI9RvaQe0_618O25Zi-37" value="verify" style="text;html=1;align=center;verticalAlign=middle;resizable=0;points=[];autosize=1;strokeColor=none;fillColor=none;" vertex="1" parent="WIyWlLk6GJQsqaUBKTNV-1">
          <mxGeometry x="250" y="258.13" width="50" height="30" as="geometry" />
        </mxCell>
        <mxCell id="bbwI9RvaQe0_618O25Zi-38" value="" style="endArrow=none;html=1;rounded=0;" edge="1" parent="WIyWlLk6GJQsqaUBKTNV-1" target="bbwI9RvaQe0_618O25Zi-41">
          <mxGeometry width="50" height="50" relative="1" as="geometry">
            <mxPoint x="80" y="290" as="sourcePoint" />
            <mxPoint x="80" y="250" as="targetPoint" />
          </mxGeometry>
        </mxCell>
        <mxCell id="bbwI9RvaQe0_618O25Zi-39" value="" style="endArrow=none;html=1;rounded=0;" edge="1" parent="WIyWlLk6GJQsqaUBKTNV-1">
          <mxGeometry width="50" height="50" relative="1" as="geometry">
            <mxPoint x="237" y="220" as="sourcePoint" />
            <mxPoint x="236.91" y="180" as="targetPoint" />
          </mxGeometry>
        </mxCell>
        <mxCell id="bbwI9RvaQe0_618O25Zi-40" value="Approved" style="text;html=1;align=center;verticalAlign=middle;resizable=0;points=[];autosize=1;strokeColor=none;fillColor=none;" vertex="1" parent="WIyWlLk6GJQsqaUBKTNV-1">
          <mxGeometry x="315" y="210" width="70" height="30" as="geometry" />
        </mxCell>
        <mxCell id="bbwI9RvaQe0_618O25Zi-41" value="Approve/Reject" style="rounded=1;whiteSpace=wrap;html=1;" vertex="1" parent="WIyWlLk6GJQsqaUBKTNV-1">
          <mxGeometry x="25" y="270" width="100" height="30" as="geometry" />
        </mxCell>
        <mxCell id="bbwI9RvaQe0_618O25Zi-42" value="" style="endArrow=none;html=1;rounded=0;" edge="1" parent="WIyWlLk6GJQsqaUBKTNV-1">
          <mxGeometry width="50" height="50" relative="1" as="geometry">
            <mxPoint x="69" y="330" as="sourcePoint" />
            <mxPoint x="69.41000000000003" y="300" as="targetPoint" />
          </mxGeometry>
        </mxCell>
        <mxCell id="bbwI9RvaQe0_618O25Zi-44" value="Generate offer Annexure" style="rounded=1;whiteSpace=wrap;html=1;" vertex="1" parent="WIyWlLk6GJQsqaUBKTNV-1">
          <mxGeometry x="15" y="360" width="110" height="40" as="geometry" />
        </mxCell>
        <mxCell id="bbwI9RvaQe0_618O25Zi-45" value="Approved" style="text;html=1;align=center;verticalAlign=middle;resizable=0;points=[];autosize=1;strokeColor=none;fillColor=none;" vertex="1" parent="WIyWlLk6GJQsqaUBKTNV-1">
          <mxGeometry x="75" y="320" width="70" height="30" as="geometry" />
        </mxCell>
        <mxCell id="bbwI9RvaQe0_618O25Zi-46" value="" style="endArrow=none;html=1;rounded=0;" edge="1" parent="WIyWlLk6GJQsqaUBKTNV-1">
          <mxGeometry width="50" height="50" relative="1" as="geometry">
            <mxPoint x="68.82" y="360" as="sourcePoint" />
            <mxPoint x="68.82" y="300" as="targetPoint" />
          </mxGeometry>
        </mxCell>
        <mxCell id="bbwI9RvaQe0_618O25Zi-49" value="" style="endArrow=none;html=1;rounded=0;" edge="1" parent="WIyWlLk6GJQsqaUBKTNV-1">
          <mxGeometry width="50" height="50" relative="1" as="geometry">
            <mxPoint x="69" y="270" as="sourcePoint" />
            <mxPoint x="69.41000000000003" y="250" as="targetPoint" />
          </mxGeometry>
        </mxCell>
        <mxCell id="bbwI9RvaQe0_618O25Zi-50" value="" style="endArrow=none;html=1;rounded=0;" edge="1" parent="WIyWlLk6GJQsqaUBKTNV-1">
          <mxGeometry width="50" height="50" relative="1" as="geometry">
            <mxPoint x="125" y="379.40999999999997" as="sourcePoint" />
            <mxPoint x="190" y="379" as="targetPoint" />
          </mxGeometry>
        </mxCell>
        <mxCell id="bbwI9RvaQe0_618O25Zi-51" value="Approve/Reject/Clarification" style="rounded=1;whiteSpace=wrap;html=1;" vertex="1" parent="WIyWlLk6GJQsqaUBKTNV-1">
          <mxGeometry x="160" y="365" width="180" height="30" as="geometry" />
        </mxCell>
        <mxCell id="bbwI9RvaQe0_618O25Zi-52" value="" style="endArrow=none;html=1;rounded=0;" edge="1" parent="WIyWlLk6GJQsqaUBKTNV-1">
          <mxGeometry width="50" height="50" relative="1" as="geometry">
            <mxPoint x="249" y="460" as="sourcePoint" />
            <mxPoint x="248.82" y="395" as="targetPoint" />
          </mxGeometry>
        </mxCell>
        <mxCell id="bbwI9RvaQe0_618O25Zi-53" value="" style="endArrow=none;html=1;rounded=0;" edge="1" parent="WIyWlLk6GJQsqaUBKTNV-1">
          <mxGeometry width="50" height="50" relative="1" as="geometry">
            <mxPoint x="120" y="460" as="sourcePoint" />
            <mxPoint x="250" y="460" as="targetPoint" />
          </mxGeometry>
        </mxCell>
        <mxCell id="bbwI9RvaQe0_618O25Zi-54" value="Date of joining" style="rounded=1;whiteSpace=wrap;html=1;" vertex="1" parent="WIyWlLk6GJQsqaUBKTNV-1">
          <mxGeometry x="20" y="440" width="95" height="30" as="geometry" />
        </mxCell>
        <mxCell id="bbwI9RvaQe0_618O25Zi-55" value="Approved" style="text;html=1;align=center;verticalAlign=middle;resizable=0;points=[];autosize=1;strokeColor=none;fillColor=none;" vertex="1" parent="WIyWlLk6GJQsqaUBKTNV-1">
          <mxGeometry x="155" y="430" width="70" height="30" as="geometry" />
        </mxCell>
        <mxCell id="bbwI9RvaQe0_618O25Zi-57" value="" style="endArrow=none;html=1;rounded=0;" edge="1" parent="WIyWlLk6GJQsqaUBKTNV-1">
          <mxGeometry width="50" height="50" relative="1" as="geometry">
            <mxPoint x="69" y="500" as="sourcePoint" />
            <mxPoint x="69" y="470" as="targetPoint" />
          </mxGeometry>
        </mxCell>
        <mxCell id="bbwI9RvaQe0_618O25Zi-58" value="" style="endArrow=none;html=1;rounded=0;" edge="1" parent="WIyWlLk6GJQsqaUBKTNV-1">
          <mxGeometry width="50" height="50" relative="1" as="geometry">
            <mxPoint x="70" y="500" as="sourcePoint" />
            <mxPoint x="760" y="500" as="targetPoint" />
          </mxGeometry>
        </mxCell>
        <mxCell id="bbwI9RvaQe0_618O25Zi-59" value="" style="endArrow=none;html=1;rounded=0;" edge="1" parent="WIyWlLk6GJQsqaUBKTNV-1" target="bbwI9RvaQe0_618O25Zi-60">
          <mxGeometry width="50" height="50" relative="1" as="geometry">
            <mxPoint x="755" y="500" as="sourcePoint" />
            <mxPoint x="760" y="260" as="targetPoint" />
          </mxGeometry>
        </mxCell>
        <mxCell id="bbwI9RvaQe0_618O25Zi-61" style="edgeStyle=orthogonalEdgeStyle;rounded=0;orthogonalLoop=1;jettySize=auto;html=1;exitX=0.5;exitY=0;exitDx=0;exitDy=0;" edge="1" parent="WIyWlLk6GJQsqaUBKTNV-1" source="bbwI9RvaQe0_618O25Zi-60">
          <mxGeometry relative="1" as="geometry">
            <mxPoint x="755.4117647058824" y="190" as="targetPoint" />
          </mxGeometry>
        </mxCell>
        <mxCell id="bbwI9RvaQe0_618O25Zi-60" value="Approve/Reject" style="rounded=1;whiteSpace=wrap;html=1;" vertex="1" parent="WIyWlLk6GJQsqaUBKTNV-1">
          <mxGeometry x="700" y="228.13" width="110" height="30" as="geometry" />
        </mxCell>
        <mxCell id="bbwI9RvaQe0_618O25Zi-62" value="" style="endArrow=none;html=1;rounded=0;" edge="1" parent="WIyWlLk6GJQsqaUBKTNV-1">
          <mxGeometry width="50" height="50" relative="1" as="geometry">
            <mxPoint x="754" y="560" as="sourcePoint" />
            <mxPoint x="754.41" y="500" as="targetPoint" />
          </mxGeometry>
        </mxCell>
        <mxCell id="bbwI9RvaQe0_618O25Zi-63" value="" style="endArrow=none;html=1;rounded=0;" edge="1" parent="WIyWlLk6GJQsqaUBKTNV-1" source="bbwI9RvaQe0_618O25Zi-67">
          <mxGeometry width="50" height="50" relative="1" as="geometry">
            <mxPoint x="100" y="560" as="sourcePoint" />
            <mxPoint x="760" y="560" as="targetPoint" />
          </mxGeometry>
        </mxCell>
        <mxCell id="bbwI9RvaQe0_618O25Zi-65" value="if approved by user" style="text;html=1;align=center;verticalAlign=middle;resizable=0;points=[];autosize=1;strokeColor=none;fillColor=none;" vertex="1" parent="WIyWlLk6GJQsqaUBKTNV-1">
          <mxGeometry x="395" y="528" width="130" height="30" as="geometry" />
        </mxCell>
        <mxCell id="bbwI9RvaQe0_618O25Zi-66" value="ask to upload&amp;nbsp;&lt;br&gt;documents" style="rounded=1;whiteSpace=wrap;html=1;" vertex="1" parent="WIyWlLk6GJQsqaUBKTNV-1">
          <mxGeometry x="10" y="540" width="90" height="40" as="geometry" />
        </mxCell>
        <mxCell id="bbwI9RvaQe0_618O25Zi-68" value="" style="endArrow=none;html=1;rounded=0;" edge="1" parent="WIyWlLk6GJQsqaUBKTNV-1" target="bbwI9RvaQe0_618O25Zi-67">
          <mxGeometry width="50" height="50" relative="1" as="geometry">
            <mxPoint x="100" y="560" as="sourcePoint" />
            <mxPoint x="760" y="560" as="targetPoint" />
          </mxGeometry>
        </mxCell>
        <mxCell id="bbwI9RvaQe0_618O25Zi-67" value="" style="strokeWidth=2;html=1;shape=mxgraph.flowchart.extract_or_measurement;whiteSpace=wrap;rotation=-90;" vertex="1" parent="WIyWlLk6GJQsqaUBKTNV-1">
          <mxGeometry x="100" y="555" width="20" height="10" as="geometry" />
        </mxCell>
        <mxCell id="bbwI9RvaQe0_618O25Zi-69" value="" style="endArrow=none;html=1;rounded=0;" edge="1" parent="WIyWlLk6GJQsqaUBKTNV-1">
          <mxGeometry width="50" height="50" relative="1" as="geometry">
            <mxPoint x="60" y="620" as="sourcePoint" />
            <mxPoint x="810" y="620" as="targetPoint" />
          </mxGeometry>
        </mxCell>
        <mxCell id="bbwI9RvaQe0_618O25Zi-70" value="" style="endArrow=none;html=1;rounded=0;" edge="1" parent="WIyWlLk6GJQsqaUBKTNV-1">
          <mxGeometry width="50" height="50" relative="1" as="geometry">
            <mxPoint x="60" y="620" as="sourcePoint" />
            <mxPoint x="60" y="585" as="targetPoint" />
          </mxGeometry>
        </mxCell>
        <mxCell id="bbwI9RvaQe0_618O25Zi-71" value="" style="endArrow=none;html=1;rounded=0;" edge="1" parent="WIyWlLk6GJQsqaUBKTNV-1">
          <mxGeometry width="50" height="50" relative="1" as="geometry">
            <mxPoint x="810" y="620" as="sourcePoint" />
            <mxPoint x="810" y="170" as="targetPoint" />
          </mxGeometry>
        </mxCell>
        <mxCell id="bbwI9RvaQe0_618O25Zi-73" value="" style="strokeWidth=2;html=1;shape=mxgraph.flowchart.extract_or_measurement;whiteSpace=wrap;rotation=-90;" vertex="1" parent="WIyWlLk6GJQsqaUBKTNV-1">
          <mxGeometry x="790" y="160" width="20" height="10" as="geometry" />
        </mxCell>
        <mxCell id="bbwI9RvaQe0_618O25Zi-74" style="edgeStyle=orthogonalEdgeStyle;rounded=0;orthogonalLoop=1;jettySize=auto;html=1;exitX=0.5;exitY=1;exitDx=0;exitDy=0;entryX=0.43;entryY=0.167;entryDx=0;entryDy=0;entryPerimeter=0;" edge="1" parent="WIyWlLk6GJQsqaUBKTNV-1" source="bbwI9RvaQe0_618O25Zi-25" target="bbwI9RvaQe0_618O25Zi-51">
          <mxGeometry relative="1" as="geometry" />
        </mxCell>
      </root>
    </mxGraphModel>
  </diagram>
</mxfile>
